<svg xmlns="http://www.w3.org/2000/svg" width="21" height="19" viewBox="0 0 21 19">
  <metadata><?xpacket begin="﻿" id="W5M0MpCehiHzreSzNTczkc9d"?>
<x:xmpmeta xmlns:x="adobe:ns:meta/" x:xmptk="Adobe XMP Core 5.6-c138 79.159824, 2016/09/14-01:09:01        ">
   <rdf:RDF xmlns:rdf="http://www.w3.org/1999/02/22-rdf-syntax-ns#">
      <rdf:Description rdf:about=""/>
   </rdf:RDF>
</x:xmpmeta>





















<?xpacket end="w"?></metadata>
<defs>
    <style>
      .cls-1 {
        fill: #fff;
        stroke: #fff;
        stroke-width: 2px;
        fill-rule: evenodd;
      }
    </style>
  </defs>
  <path id="Forma_1" data-name="Forma 1" class="cls-1" d="M19.972,6.067A5.288,5.288,0,0,0,14.828,1a5.152,5.152,0,0,0-4.381,2.43A4.96,4.96,0,0,0,6.171,1a5.287,5.287,0,0,0-5.144,5.07,5.04,5.04,0,0,0,.162,1.928A8.216,8.216,0,0,0,3.821,12.22L10.443,18l6.735-5.781A8.218,8.218,0,0,0,19.81,7.995,5.059,5.059,0,0,0,19.972,6.067Z"/>
</svg>
