<svg xmlns="http://www.w3.org/2000/svg" width="165" height="138" viewBox="0 0 165 138">
  <metadata><?xpacket begin="﻿" id="W5M0MpCehiHzreSzNTczkc9d"?>
<x:xmpmeta xmlns:x="adobe:ns:meta/" x:xmptk="Adobe XMP Core 5.6-c138 79.159824, 2016/09/14-01:09:01        ">
   <rdf:RDF xmlns:rdf="http://www.w3.org/1999/02/22-rdf-syntax-ns#">
      <rdf:Description rdf:about=""/>
   </rdf:RDF>
</x:xmpmeta>
                                                                                                    
                                                                                                    
                                                                                                    
                                                                                                    
                                                                                                    
                                                                                                    
                                                                                                    
                                                                                                    
                                                                                                    
                                                                                                    
                                                                                                    
                                                                                                    
                                                                                                    
                                                                                                    
                                                                                                    
                                                                                                    
                                                                                                    
                                                                                                    
                                                                                                    
                                                                                                    
                           
<?xpacket end="w"?></metadata>
<defs>
    <style>
      .cls-1 {
        fill: #f86b54;
        fill-rule: evenodd;
      }
    </style>
  </defs>
  <path class="cls-1" d="M93.99,43.861H44.071a2.718,2.718,0,0,0,0,5.436H93.99A2.718,2.718,0,0,0,93.99,43.861Zm0,14.949H44.071a2.718,2.718,0,0,0,0,5.436H93.99A2.718,2.718,0,0,0,93.99,58.81Zm70.842-34.216a2.716,2.716,0,0,0-2.167-2.171c-7.824-1.468-22.49,6.5-44.835,24.371-2.242,1.793-4.489,3.632-6.716,5.486V28.114h22.6a2.716,2.716,0,0,0,2.714-2.718V16.212A16.217,16.217,0,0,0,120.236,0H41.5A14.578,14.578,0,0,0,26.947,14.573v95.311H2.714A2.716,2.716,0,0,0,0,112.6v9.185A16.219,16.219,0,0,0,16.188,138H96.567a14.579,14.579,0,0,0,14.551-14.574l0-20.213C118.783,95.1,130.367,82.2,140.5,69.5,158.339,47.12,166.3,32.432,164.832,24.595ZM26.947,121.788a10.779,10.779,0,0,1-10.759,10.775h0a10.78,10.78,0,0,1-10.76-10.776V115.32H26.947v6.468ZM120.236,5.437A10.779,10.779,0,0,1,131,16.212v6.467H57.685V16.212a16.163,16.163,0,0,0-4.1-10.775h66.654ZM96.567,132.563h-68.3a16.157,16.157,0,0,0,4.107-10.775V14.573A9.14,9.14,0,0,1,41.5,5.437,10.78,10.78,0,0,1,52.257,16.212V25.4a2.716,2.716,0,0,0,2.714,2.718h50.716V56.866c-7.086,6.066-13.7,12.039-18.9,16.893H44.072a2.718,2.718,0,0,0,0,5.436H81.067c-0.863.838-1.639,1.6-2.307,2.271a26.161,26.161,0,0,0-5.089,7.24h-29.6a2.718,2.718,0,0,0,0,5.436H71.689a39.6,39.6,0,0,0-1.237,9.515H44.072a2.718,2.718,0,0,0,0,5.435H70.693c0.138,1.354.31,2.482,0.457,3.311L59.661,123.91a2.716,2.716,0,1,0,3.838,3.843l11.493-11.509a47.546,47.546,0,0,0,8.083.691c0.613,0,1.246-.012,1.892-0.039,8.532-.356,15.687-3.154,20.721-8.088l0,14.617A9.139,9.139,0,0,1,96.567,132.563Zm5.474-27.78c-4.093,4.1-9.865,6.346-17.158,6.677a41.615,41.615,0,0,1-5.029-.086L148.974,42.15a2.716,2.716,0,1,0-3.838-3.844L76.015,107.532c-0.451-5.907.017-15.646,6.582-22.222,6.48-6.489,22.694-21.531,38.619-34.267C129.9,44.1,150,28.784,159.537,27.727c-1.055,9.557-16.345,29.68-23.281,38.379C123.539,82.055,108.521,98.294,102.041,104.783Z"/>
</svg>
