<svg xmlns="http://www.w3.org/2000/svg" width="165" height="165" viewBox="0 0 165 165">
  <metadata><?xpacket begin="﻿" id="W5M0MpCehiHzreSzNTczkc9d"?>
<x:xmpmeta xmlns:x="adobe:ns:meta/" x:xmptk="Adobe XMP Core 5.6-c138 79.159824, 2016/09/14-01:09:01        ">
   <rdf:RDF xmlns:rdf="http://www.w3.org/1999/02/22-rdf-syntax-ns#">
      <rdf:Description rdf:about=""/>
   </rdf:RDF>
</x:xmpmeta>
                                                                                                    
                                                                                                    
                                                                                                    
                                                                                                    
                                                                                                    
                                                                                                    
                                                                                                    
                                                                                                    
                                                                                                    
                                                                                                    
                                                                                                    
                                                                                                    
                                                                                                    
                                                                                                    
                                                                                                    
                                                                                                    
                                                                                                    
                                                                                                    
                                                                                                    
                                                                                                    
                           
<?xpacket end="w"?></metadata>
<defs>
    <style>
      .cls-1 {
        fill: #f86b54;
        fill-rule: evenodd;
      }
    </style>
  </defs>
  <path class="cls-1" d="M118.25,55h-5.5a2.75,2.75,0,1,0,0,5.5h5.5A2.75,2.75,0,1,0,118.25,55Zm0,11h-5.5a2.75,2.75,0,1,0,0,5.5h5.5A2.75,2.75,0,1,0,118.25,66Zm0-22h-5.5a2.75,2.75,0,1,0,0,5.5h5.5A2.75,2.75,0,1,0,118.25,44Zm0,88h-5.5a2.75,2.75,0,0,0,0,5.5h5.5A2.75,2.75,0,0,0,118.25,132ZM57.75,44H41.25a2.751,2.751,0,0,0-2.75,2.75v38.5A2.751,2.751,0,0,0,41.25,88h16.5a2.751,2.751,0,0,0,2.75-2.75V46.75A2.751,2.751,0,0,0,57.75,44ZM55,82.5H44v-33H55v33ZM57.75,132H41.25a2.75,2.75,0,0,0,0,5.5h16.5A2.75,2.75,0,0,0,57.75,132Zm0,11H41.25a2.75,2.75,0,0,0,0,5.5h16.5A2.75,2.75,0,0,0,57.75,143Zm60.5,0h-5.5a2.75,2.75,0,0,0,0,5.5h5.5A2.75,2.75,0,0,0,118.25,143Zm33,0h-11a2.75,2.75,0,0,0,0,5.5h11A2.75,2.75,0,0,0,151.25,143ZM93.5,46.75A2.751,2.751,0,0,0,90.75,44h-11A2.751,2.751,0,0,0,77,46.75v38.5A2.751,2.751,0,0,0,79.75,88h11a2.751,2.751,0,0,0,2.75-2.75V46.75ZM88,82.5H82.5v-33H88v33ZM151.25,132h-11a2.75,2.75,0,0,0,0,5.5h11A2.75,2.75,0,0,0,151.25,132Zm-60.5,11h-11a2.75,2.75,0,0,0,0,5.5h11A2.75,2.75,0,0,0,90.75,143Zm49.5-44A2.751,2.751,0,0,0,143,96.25V68.75a2.75,2.75,0,0,0-5.5,0v27.5A2.751,2.751,0,0,0,140.25,99ZM154,68.75a2.75,2.75,0,0,0-5.5,0v27.5a2.75,2.75,0,0,0,5.5,0V68.75ZM156.75,22h-16.5a2.75,2.75,0,1,0,0,5.5h16.5a2.755,2.755,0,0,1,2.75,2.75v126.5a2.755,2.755,0,0,1-2.75,2.75H132V44h16.5a2.75,2.75,0,1,0,0-5.5H132V13.75a8.163,8.163,0,0,0-8.25-8.25h-16.5A8.26,8.26,0,0,0,99,13.75V159.5H71.5V16.5H90.75a2.75,2.75,0,1,0,0-5.5H71.5V8.25A8.163,8.163,0,0,0,63.25,0H35.75A8.26,8.26,0,0,0,27.5,8.25V33H13.75a2.75,2.75,0,0,0,0,5.5H27.5v121H8.25a2.755,2.755,0,0,1-2.75-2.75v-132A2.754,2.754,0,0,1,8.25,22h11a2.75,2.75,0,0,0,0-5.5h-11A8.26,8.26,0,0,0,0,24.75v132A8.26,8.26,0,0,0,8.25,165h148.5a8.26,8.26,0,0,0,8.25-8.25V30.25A8.26,8.26,0,0,0,156.75,22ZM66,159.5H33V22H57.75a2.75,2.75,0,0,0,0-5.5H33V8.25A2.72,2.72,0,0,1,35.75,5.5h27.5A2.69,2.69,0,0,1,66,8.25V159.5h0Zm60.5,0h-22V27.5h13.75a2.75,2.75,0,1,0,0-5.5H104.5V13.75A2.72,2.72,0,0,1,107.25,11h16.5a2.69,2.69,0,0,1,2.75,2.75V159.5ZM19.25,132h-5.5a2.75,2.75,0,0,0,0,5.5h5.5A2.75,2.75,0,1,0,19.25,132Zm0,11h-5.5a2.75,2.75,0,0,0,0,5.5h5.5A2.75,2.75,0,1,0,19.25,143Zm71.5-11h-11a2.75,2.75,0,0,0,0,5.5h11A2.75,2.75,0,0,0,90.75,132ZM19.25,66h-5.5a2.75,2.75,0,1,0,0,5.5h5.5A2.75,2.75,0,1,0,19.25,66Zm0,11h-5.5a2.75,2.75,0,0,0,0,5.5h5.5A2.75,2.75,0,0,0,19.25,77Z"/>
</svg>
