<svg xmlns="http://www.w3.org/2000/svg" width="12" height="12" viewBox="0 0 12 12">
  <metadata><?xpacket begin="﻿" id="W5M0MpCehiHzreSzNTczkc9d"?>
<x:xmpmeta xmlns:x="adobe:ns:meta/" x:xmptk="Adobe XMP Core 5.6-c138 79.159824, 2016/09/14-01:09:01        ">
   <rdf:RDF xmlns:rdf="http://www.w3.org/1999/02/22-rdf-syntax-ns#">
      <rdf:Description rdf:about=""/>
   </rdf:RDF>
</x:xmpmeta>
                                                                                                    
                                                                                                    
                                                                                                    
                                                                                                    
                                                                                                    
                                                                                                    
                                                                                                    
                                                                                                    
                                                                                                    
                                                                                                    
                                                                                                    
                                                                                                    
                                                                                                    
                                                                                                    
                                                                                                    
                                                                                                    
                                                                                                    
                                                                                                    
                                                                                                    
                                                                                                    
                           
<?xpacket end="w"?></metadata>
<defs>
    <style>
      .cls-1 {
        fill: #f86b54;
        fill-rule: evenodd;
      }
    </style>
  </defs>
  <path id="Forma_1_copy_4" data-name="Forma 1 copy 4" class="cls-1" d="M10.86,3.126l-0.792.794L8.088,1.933,8.88,1.139a0.437,0.437,0,0,1,.6,0L10.86,2.521a0.429,0.429,0,0,1,0,.605h0ZM4.242,9.765L2.261,7.779l5.12-5.138,1.98,1.987L4.242,9.765h0ZM1.8,8.736l1.482,1.487-2.064.583L1.8,8.736h0Zm9.763-6.924L10.19,0.431a1.454,1.454,0,0,0-2.015,0L1.2,7.426a0.481,0.481,0,0,0-.127.218L0.022,11.395a0.51,0.51,0,0,0,.127.49,0.612,0.612,0,0,0,.489.127l3.741-1.056A0.479,0.479,0,0,0,4.6,10.829l6.971-6.995a1.435,1.435,0,0,0,0-2.021h0Z"/>
</svg>
