<svg xmlns="http://www.w3.org/2000/svg" width="12" height="17" viewBox="0 0 12 17">
  <metadata><?xpacket begin="﻿" id="W5M0MpCehiHzreSzNTczkc9d"?>
<x:xmpmeta xmlns:x="adobe:ns:meta/" x:xmptk="Adobe XMP Core 5.6-c138 79.159824, 2016/09/14-01:09:01        ">
   <rdf:RDF xmlns:rdf="http://www.w3.org/1999/02/22-rdf-syntax-ns#">
      <rdf:Description rdf:about=""/>
   </rdf:RDF>
</x:xmpmeta>
                                                                                                    
                                                                                                    
                                                                                                    
                                                                                                    
                                                                                                    
                                                                                                    
                                                                                                    
                                                                                                    
                                                                                                    
                                                                                                    
                                                                                                    
                                                                                                    
                                                                                                    
                                                                                                    
                                                                                                    
                                                                                                    
                                                                                                    
                                                                                                    
                                                                                                    
                                                                                                    
                           
<?xpacket end="w"?></metadata>
<defs>
    <style>
      .cls-1 {
        fill: #f86b54;
        fill-rule: evenodd;
      }
    </style>
  </defs>
  <path id="Forma_1" data-name="Forma 1" class="cls-1" d="M11.337,6.847h-1V4.325a4.329,4.329,0,0,0-8.658,0V6.847h-1a0.665,0.665,0,0,0-.666.664v8.826A0.665,0.665,0,0,0,.681,17H11.337A0.665,0.665,0,0,0,12,16.336V7.511A0.665,0.665,0,0,0,11.337,6.847ZM3.012,4.325a3,3,0,0,1,5.994,0V6.847H3.012V4.325Zm7.659,11.347H1.347v-7.5h9.324v7.5ZM6.009,11.094a0.83,0.83,0,1,1-.832.83A0.831,0.831,0,0,1,6.009,11.094Z"/>
</svg>
