<svg xmlns="http://www.w3.org/2000/svg" width="19" height="19" viewBox="0 0 19 19">
  <metadata><?xpacket begin="﻿" id="W5M0MpCehiHzreSzNTczkc9d"?>
<x:xmpmeta xmlns:x="adobe:ns:meta/" x:xmptk="Adobe XMP Core 5.6-c138 79.159824, 2016/09/14-01:09:01        ">
   <rdf:RDF xmlns:rdf="http://www.w3.org/1999/02/22-rdf-syntax-ns#">
      <rdf:Description rdf:about=""/>
   </rdf:RDF>
</x:xmpmeta>





















<?xpacket end="w"?></metadata>
<defs>
    <style>
      .cls-1 {
        fill: #fff;
        fill-rule: evenodd;
      }
    </style>
  </defs>
  <path id="Forma_1" data-name="Forma 1" class="cls-1" d="M9.5,0A9.5,9.5,0,1,0,19,9.5,9.511,9.511,0,0,0,9.5,0Zm8.093,8.439H14.517A11.711,11.711,0,0,0,11.669,1.63,8.183,8.183,0,0,1,17.593,8.439Zm-8.761,0h-3a10.892,10.892,0,0,1,3-6.431V8.439Zm0,1.336v7.354a0.682,0.682,0,0,0-.076-0.093A10.4,10.4,0,0,1,5.774,9.774H8.832Zm1.335,0h3.056a10.933,10.933,0,0,1-3.056,7.312V9.774Zm0-1.336V1.966a0.672,0.672,0,0,0,.076.092,10.315,10.315,0,0,1,2.938,6.38H10.168ZM7.385,1.615A12.259,12.259,0,0,0,4.5,8.439H1.407A8.185,8.185,0,0,1,7.385,1.615ZM1.343,9.774h3.1a11.8,11.8,0,0,0,2.779,7.565A8.177,8.177,0,0,1,1.343,9.774Zm10.379,7.58a12.306,12.306,0,0,0,2.83-7.58h3.106A8.178,8.178,0,0,1,11.722,17.355Z"/>
</svg>
