<svg xmlns="http://www.w3.org/2000/svg" width="13" height="13" viewBox="0 0 13 13">
  <metadata><?xpacket begin="﻿" id="W5M0MpCehiHzreSzNTczkc9d"?>
<x:xmpmeta xmlns:x="adobe:ns:meta/" x:xmptk="Adobe XMP Core 5.6-c138 79.159824, 2016/09/14-01:09:01        ">
   <rdf:RDF xmlns:rdf="http://www.w3.org/1999/02/22-rdf-syntax-ns#">
      <rdf:Description rdf:about=""/>
   </rdf:RDF>
</x:xmpmeta>
                                                                                                    
                                                                                                    
                                                                                                    
                                                                                                    
                                                                                                    
                                                                                                    
                                                                                                    
                                                                                                    
                                                                                                    
                                                                                                    
                                                                                                    
                                                                                                    
                                                                                                    
                                                                                                    
                                                                                                    
                                                                                                    
                                                                                                    
                                                                                                    
                                                                                                    
                                                                                                    
                           
<?xpacket end="w"?></metadata>
<defs>
    <style>
      .cls-1 {
        fill: #f86a53;
        fill-rule: evenodd;
      }
    </style>
  </defs>
  <path id="Forma_1_copy_11" data-name="Forma 1 copy 11" class="cls-1" d="M0,11.273A1.619,1.619,0,0,0,1.479,13h10.7V12.233H11.493V10.313h0.685V9.978H13V9.21H12.507V7.291H13V6.524H12.466V5.868L11.654,4.093h0.853V3.061L10.361,0H2.792L0.84,3.591A1.836,1.836,0,0,0,.288,4.925,1.622,1.622,0,0,0,1.753,6.651a1.744,1.744,0,0,0-.931,1.6,1.841,1.841,0,0,0,.527,1.31A1.641,1.641,0,0,0,0,11.273ZM0.945,4.925a0.99,0.99,0,0,1,.42-0.832h9.8V5.884h-9.4A0.9,0.9,0,0,1,.945,4.925ZM2.3,7.291h9.548V9.21H2.3a0.9,0.9,0,0,1-.822-0.959A0.9,0.9,0,0,1,2.3,7.291ZM1.479,10.313h9.356v1.919H1.479a0.9,0.9,0,0,1-.822-0.96A0.9,0.9,0,0,1,1.479,10.313Z"/>
</svg>
