<svg xmlns="http://www.w3.org/2000/svg" width="226" height="165" viewBox="0 0 226 165">
  <metadata><?xpacket begin="﻿" id="W5M0MpCehiHzreSzNTczkc9d"?>
<x:xmpmeta xmlns:x="adobe:ns:meta/" x:xmptk="Adobe XMP Core 5.6-c138 79.159824, 2016/09/14-01:09:01        ">
   <rdf:RDF xmlns:rdf="http://www.w3.org/1999/02/22-rdf-syntax-ns#">
      <rdf:Description rdf:about=""/>
   </rdf:RDF>
</x:xmpmeta>
                                                                                                    
                                                                                                    
                                                                                                    
                                                                                                    
                                                                                                    
                                                                                                    
                                                                                                    
                                                                                                    
                                                                                                    
                                                                                                    
                                                                                                    
                                                                                                    
                                                                                                    
                                                                                                    
                                                                                                    
                                                                                                    
                                                                                                    
                                                                                                    
                                                                                                    
                                                                                                    
                           
<?xpacket end="w"?></metadata>
<defs>
    <style>
      .cls-1 {
        fill: #f86b54;
        fill-rule: evenodd;
      }
    </style>
  </defs>
  <path class="cls-1" d="M158.294,0H146.971a11.1,11.1,0,0,0-10.85,8.768C127.428,13.1,84.766,33.227,28.589,40.594a11.209,11.209,0,0,0-7.615,4.533H11.088A11.08,11.08,0,0,0,0,56.175V78.739A11.08,11.08,0,0,0,11.088,89.786h9.887a11.206,11.206,0,0,0,7.615,4.533c0.565,0.074,1.125.152,1.688,0.229l17.386,62.36A11.115,11.115,0,0,0,58.346,165H82.8a3.526,3.526,0,1,0,0-7.051H81.72l-15.79-56.63c37.126,9.013,63.556,21.52,70.192,24.828a11.1,11.1,0,0,0,10.849,8.768h11.323a11.08,11.08,0,0,0,11.088-11.047V11.047A11.08,11.08,0,0,0,158.294,0ZM18.873,82.735H11.088a4.008,4.008,0,0,1-4.011-4V56.175a4.008,4.008,0,0,1,4.011-4h7.785V82.735Zm55.5,75.214H58.346a4.019,4.019,0,0,1-3.864-2.926L37.937,95.681C44.9,96.793,51.631,98.087,58.078,99.5Zm87.931-34.081a4.008,4.008,0,0,1-4.011,4H146.971a4.007,4.007,0,0,1-4.011-4V41.134a3.539,3.539,0,0,0-7.078,0v77.057A372.793,372.793,0,0,0,29.512,87.329a4.053,4.053,0,0,1-3.563-3.966V51.551a4.053,4.053,0,0,1,3.563-3.966,372.773,372.773,0,0,0,106.37-30.862v9.368a3.539,3.539,0,0,0,7.078,0V11.047a4.008,4.008,0,0,1,4.011-4h11.323a4.008,4.008,0,0,1,4.011,4v112.82h0Zm60.156-59.936H184.716a3.526,3.526,0,1,0,0,7.052h37.745A3.526,3.526,0,1,0,222.461,63.932Zm-8.071-35.47a3.543,3.543,0,0,0-4.646-1.852l-3.775,1.612a3.527,3.527,0,0,0,2.788,6.481l3.775-1.612A3.52,3.52,0,0,0,214.39,28.462Zm-15.1,6.447a3.543,3.543,0,0,0-4.646-1.851l-11.324,4.835a3.527,3.527,0,0,0,2.788,6.481l11.323-4.835A3.52,3.52,0,0,0,199.292,34.908Zm13.239,66.915-3.785-1.616a3.527,3.527,0,1,0-2.788,6.48l3.785,1.617A3.528,3.528,0,1,0,212.531,101.823Zm-15.1-6.449L186.11,90.541a3.527,3.527,0,1,0-2.788,6.481l11.318,4.833A3.528,3.528,0,1,0,197.428,95.374Z"/>
</svg>
