<svg xmlns="http://www.w3.org/2000/svg" width="165" height="118" viewBox="0 0 165 118">
  <metadata><?xpacket begin="﻿" id="W5M0MpCehiHzreSzNTczkc9d"?>
<x:xmpmeta xmlns:x="adobe:ns:meta/" x:xmptk="Adobe XMP Core 5.6-c138 79.159824, 2016/09/14-01:09:01        ">
   <rdf:RDF xmlns:rdf="http://www.w3.org/1999/02/22-rdf-syntax-ns#">
      <rdf:Description rdf:about=""/>
   </rdf:RDF>
</x:xmpmeta>
                                                                                                    
                                                                                                    
                                                                                                    
                                                                                                    
                                                                                                    
                                                                                                    
                                                                                                    
                                                                                                    
                                                                                                    
                                                                                                    
                                                                                                    
                                                                                                    
                                                                                                    
                                                                                                    
                                                                                                    
                                                                                                    
                                                                                                    
                                                                                                    
                                                                                                    
                                                                                                    
                           
<?xpacket end="w"?></metadata>
<defs>
    <style>
      .cls-1 {
        fill: #f86c55;
        fill-rule: evenodd;
      }
    </style>
  </defs>
  <path class="cls-1" d="M154.149,35.766H96.941A49.423,49.423,0,1,0,38.973,97.615l12.2,12.18a5.34,5.34,0,0,0,9.114-3.771V97.5A49.593,49.593,0,0,0,66.139,95.8v0.338A10.857,10.857,0,0,0,76.99,106.98H95.21l9.706,9.693a4.526,4.526,0,0,0,7.726-3.2v-6.5H154.15A10.857,10.857,0,0,0,165,96.143V46.6A10.856,10.856,0,0,0,154.149,35.766Zm-96.9,57.078a2.581,2.581,0,0,0-2.13,2.54v10.64a0.173,0.173,0,0,1-.294.122L42.081,93.421a2.582,2.582,0,0,0-1.323-.706A44.215,44.215,0,0,1,44.375,5.44a46.585,46.585,0,0,1,5.119-.284A43.789,43.789,0,0,1,78.949,16.424,44.16,44.16,0,0,1,57.246,92.844Zm102.587,3.3a5.686,5.686,0,0,1-5.684,5.676H110.058a2.582,2.582,0,0,0-2.583,2.581v7.532l-9.369-9.357a2.583,2.583,0,0,0-1.827-.755H76.99a5.687,5.687,0,0,1-5.684-5.677V93.627a49.265,49.265,0,0,0,26.822-52.7H154.15a5.687,5.687,0,0,1,5.683,5.677v49.54h0Zm-14.88-40.356a2.585,2.585,0,0,0-3.653,0l-25.731,25.7L103.624,69.555A2.582,2.582,0,1,0,99.97,73.2l13.772,13.755a2.586,2.586,0,0,0,3.654,0l27.557-27.522A2.578,2.578,0,0,0,144.953,55.787ZM49.435,68.8h0a2.585,2.585,0,0,0-2.585,2.582v0a2.585,2.585,0,0,0,2.585,2.582h0a2.585,2.585,0,0,0,2.585-2.582v0A2.585,2.585,0,0,0,49.435,68.8ZM60.942,29.616A16.281,16.281,0,0,0,33.071,41.111a2.584,2.584,0,0,0,5.167,0,11.113,11.113,0,0,1,19.051-7.846,11.065,11.065,0,0,1,3.34,7.847,11.253,11.253,0,0,1-7.973,10.711,8.046,8.046,0,0,0-5.805,7.732v0.822a2.584,2.584,0,0,0,5.167,0V59.555a2.917,2.917,0,0,1,2.123-2.789A16.448,16.448,0,0,0,65.8,41.112,16.188,16.188,0,0,0,60.942,29.616Z"/>
</svg>
