<svg xmlns="http://www.w3.org/2000/svg" width="19" height="19" viewBox="0 0 19 19">
  <metadata><?xpacket begin="﻿" id="W5M0MpCehiHzreSzNTczkc9d"?>
<x:xmpmeta xmlns:x="adobe:ns:meta/" x:xmptk="Adobe XMP Core 5.6-c138 79.159824, 2016/09/14-01:09:01        ">
   <rdf:RDF xmlns:rdf="http://www.w3.org/1999/02/22-rdf-syntax-ns#">
      <rdf:Description rdf:about=""/>
   </rdf:RDF>
</x:xmpmeta>





















<?xpacket end="w"?></metadata>
<defs>
    <style>
      .cls-1 {
        fill: #fff;
        fill-rule: evenodd;
      }
    </style>
  </defs>
  <path id="Forma_1" data-name="Forma 1" class="cls-1" d="M18.253,14.3c-1.708-1.485-3.288-3.579-3.288-8.809a5.465,5.465,0,1,0-10.93,0c0,5.234-1.58,7.327-3.289,8.81A2.18,2.18,0,0,0,0,15.941a0.623,0.623,0,0,0,.622.625h5.9a3.04,3.04,0,0,0,5.958,0h5.9A0.623,0.623,0,0,0,19,15.941,2.167,2.167,0,0,0,18.253,14.3ZM9.5,17.751a1.8,1.8,0,0,1-1.689-1.185h3.378A1.8,1.8,0,0,1,9.5,17.751ZM1.488,15.316a0.9,0.9,0,0,1,.072-0.07c2.606-2.261,3.718-5.179,3.718-9.754a4.222,4.222,0,1,1,8.443,0c0,4.571,1.112,7.488,3.719,9.755a0.914,0.914,0,0,1,.072.07H1.488Z"/>
</svg>
