<svg xmlns="http://www.w3.org/2000/svg" width="34" height="24" viewBox="0 0 34 24">
  <metadata><?xpacket begin="﻿" id="W5M0MpCehiHzreSzNTczkc9d"?>
<x:xmpmeta xmlns:x="adobe:ns:meta/" x:xmptk="Adobe XMP Core 5.6-c138 79.159824, 2016/09/14-01:09:01        ">
   <rdf:RDF xmlns:rdf="http://www.w3.org/1999/02/22-rdf-syntax-ns#">
      <rdf:Description rdf:about=""/>
   </rdf:RDF>
</x:xmpmeta>
                                                                                                    
                                                                                                    
                                                                                                    
                                                                                                    
                                                                                                    
                                                                                                    
                                                                                                    
                                                                                                    
                                                                                                    
                                                                                                    
                                                                                                    
                                                                                                    
                                                                                                    
                                                                                                    
                                                                                                    
                                                                                                    
                                                                                                    
                                                                                                    
                                                                                                    
                                                                                                    
                           
<?xpacket end="w"?></metadata>
<defs>
    <style>
      .cls-1 {
        fill: #8f8f8f;
        fill-rule: evenodd;
      }
    </style>
  </defs>
  <path id="Shape_1738_copy_2" data-name="Shape 1738 copy 2" class="cls-1" d="M10.894,1.436v-0.4A1.059,1.059,0,0,1,11.956-.018H32.938A1.059,1.059,0,0,1,34,1.037V20.127a1.059,1.059,0,0,1-1.062,1.054H28.554a3.879,3.879,0,0,1-7.459,0H10.176a3.879,3.879,0,0,1-7.459,0H1.309a0.979,0.979,0,0,1-.123-0.025,0.976,0.976,0,0,1-.123.025A1.059,1.059,0,0,1,0,20.127v-8.07C0,6.495,4.8,1.918,10.894,1.436ZM2.166,11.355h3.99c1.018-.277,1.224-2.086,1.224-4.9V4.487A8.619,8.619,0,0,0,2.166,11.355ZM8.8,3.959V6.45c0,3.056-.184,5.837-2.414,6.3a0.721,0.721,0,0,1-.144.014H2.125v6.312H2.717a3.879,3.879,0,0,1,7.459,0H21.095a3.831,3.831,0,0,1,.8-1.461H11.956a0.705,0.705,0,0,1-.64-0.41,1.034,1.034,0,0,1-.423-0.82V3.549A10.994,10.994,0,0,0,8.8,3.959Zm4.222,12.247H31.875V2.091H13.019V16.206Zm18.857,1.406H27.759a3.831,3.831,0,0,1,.8,1.461h3.321V17.612Zm-7.051,4.273a1.758,1.758,0,1,0-1.77-1.761,0.014,0.014,0,0,1,0,0s0,0,0,0A1.766,1.766,0,0,0,24.824,21.885Zm-18.378,0a1.758,1.758,0,1,0-1.771-1.757A1.766,1.766,0,0,0,6.446,21.885Z"/>
</svg>
