<svg xmlns="http://www.w3.org/2000/svg" width="20" height="20" viewBox="0 0 20 20">
  <metadata><?xpacket begin="﻿" id="W5M0MpCehiHzreSzNTczkc9d"?>
<x:xmpmeta xmlns:x="adobe:ns:meta/" x:xmptk="Adobe XMP Core 5.6-c138 79.159824, 2016/09/14-01:09:01        ">
   <rdf:RDF xmlns:rdf="http://www.w3.org/1999/02/22-rdf-syntax-ns#">
      <rdf:Description rdf:about=""/>
   </rdf:RDF>
</x:xmpmeta>
                                                                                                    
                                                                                                    
                                                                                                    
                                                                                                    
                                                                                                    
                                                                                                    
                                                                                                    
                                                                                                    
                                                                                                    
                                                                                                    
                                                                                                    
                                                                                                    
                                                                                                    
                                                                                                    
                                                                                                    
                                                                                                    
                                                                                                    
                                                                                                    
                                                                                                    
                                                                                                    
                           
<?xpacket end="w"?></metadata>
<defs>
    <style>
      .cls-1 {
        fill: #f86b54;
        fill-rule: evenodd;
      }
    </style>
  </defs>
  <path class="cls-1" d="M19.642,15.556l-4-4a1.226,1.226,0,0,0-1.732,0l-1.04,1.04a1.225,1.225,0,0,0-.31,1.206l-0.393.392h0c-0.279.279-2.015-.149-4.113-2.248S5.526,8.114,5.8,7.835h0L6.2,7.442A1.226,1.226,0,0,0,7.4,7.132l1.04-1.04a1.226,1.226,0,0,0,0-1.732l-4-4a1.225,1.225,0,0,0-1.732,0L1.671,1.4a1.225,1.225,0,0,0-.31,1.206s-0.333.336-.349,0.357C-0.095,4.193-.3,6.129.431,8.445a17.449,17.449,0,0,0,4.361,6.763,17.453,17.453,0,0,0,6.763,4.361A8.461,8.461,0,0,0,14.092,20a4.218,4.218,0,0,0,3.084-1.143l0.218-.218a1.223,1.223,0,0,0,1.206-.31l1.04-1.04A1.226,1.226,0,0,0,19.642,15.556ZM3.577,1.225l4,4L6.538,6.266h0L6.523,6.251,4.537,4.265l-2-2ZM16.311,17.991h0c-0.881.881-2.438,1.026-4.385,0.41a16.217,16.217,0,0,1-6.267-4.059A16.217,16.217,0,0,1,1.6,8.075c-0.617-1.947-.471-3.5.41-4.385h0l0.111-.11,3.1,3.1-0.285.285h0c-1.18,1.181.238,3.834,2.248,5.844,1.5,1.5,3.369,2.677,4.708,2.677a1.546,1.546,0,0,0,1.138-.43h0l0.284-.285,3.1,3.1Zm1.425-.529-4-4,1.04-1.04,4,4Z"/>
</svg>
