<svg xmlns="http://www.w3.org/2000/svg" width="20" height="20" viewBox="0 0 20 20">
  <metadata><?xpacket begin="﻿" id="W5M0MpCehiHzreSzNTczkc9d"?>
<x:xmpmeta xmlns:x="adobe:ns:meta/" x:xmptk="Adobe XMP Core 5.6-c138 79.159824, 2016/09/14-01:09:01        ">
   <rdf:RDF xmlns:rdf="http://www.w3.org/1999/02/22-rdf-syntax-ns#">
      <rdf:Description rdf:about=""/>
   </rdf:RDF>
</x:xmpmeta>
                                                                                                    
                                                                                                    
                                                                                                    
                                                                                                    
                                                                                                    
                                                                                                    
                                                                                                    
                                                                                                    
                                                                                                    
                                                                                                    
                                                                                                    
                                                                                                    
                                                                                                    
                                                                                                    
                                                                                                    
                                                                                                    
                                                                                                    
                                                                                                    
                                                                                                    
                                                                                                    
                           
<?xpacket end="w"?></metadata>
<defs>
    <style>
      .cls-1 {
        fill: #f86b54;
        fill-rule: evenodd;
      }
    </style>
  </defs>
  <path id="_" data-name=" " class="cls-1" d="M19.984,7.559a0.332,0.332,0,0,0-.018-0.109,0.547,0.547,0,0,0-.2-0.3L16.9,5.015V2.732a0.531,0.531,0,0,0-.512-0.548H13.1L10.293,0.1A0.484,0.484,0,0,0,9.71.1L6.89,2.184H3.61a0.531,0.531,0,0,0-.512.548V4.988L0.221,7.117A0.559,0.559,0,0,0,0,7.56a0.083,0.083,0,0,0,0,.01L0.015,19.453a0.569,0.569,0,0,0,.15.387A0.5,0.5,0,0,0,.527,20h0l18.96-.028A0.531,0.531,0,0,0,20,19.423ZM16.9,6.351l1.637,1.217L16.9,8.786V6.351ZM10,1.216l1.3,0.968H8.692ZM4.122,3.28H15.877V9.548l-3.947,2.937-1.609-1.336-0.007-.005a0.485,0.485,0,0,0-.621.005L8.073,12.494,4.122,9.572V3.28ZM3.1,6.321V8.815L1.413,7.568ZM1.026,8.615l6.2,4.584L1.038,18.334Zm1,10.287,7.981-6.626,7.953,6.6Zm10.753-5.713,6.182-4.6,0.012,9.744Zm0.688-7.716H6.532a0.549,0.549,0,0,0,0,1.1h6.935A0.549,0.549,0,0,0,13.467,5.473Zm0,2.851H6.532a0.549,0.549,0,0,0,0,1.1h6.935A0.549,0.549,0,0,0,13.467,8.323Z"/>
</svg>
