<svg xmlns="http://www.w3.org/2000/svg" width="127" height="165" viewBox="0 0 127 165">
  <metadata><?xpacket begin="﻿" id="W5M0MpCehiHzreSzNTczkc9d"?>
<x:xmpmeta xmlns:x="adobe:ns:meta/" x:xmptk="Adobe XMP Core 5.6-c138 79.159824, 2016/09/14-01:09:01        ">
   <rdf:RDF xmlns:rdf="http://www.w3.org/1999/02/22-rdf-syntax-ns#">
      <rdf:Description rdf:about=""/>
   </rdf:RDF>
</x:xmpmeta>
                                                                                                    
                                                                                                    
                                                                                                    
                                                                                                    
                                                                                                    
                                                                                                    
                                                                                                    
                                                                                                    
                                                                                                    
                                                                                                    
                                                                                                    
                                                                                                    
                                                                                                    
                                                                                                    
                                                                                                    
                                                                                                    
                                                                                                    
                                                                                                    
                                                                                                    
                                                                                                    
                           
<?xpacket end="w"?></metadata>
<defs>
    <style>
      .cls-1 {
        fill: #f86b54;
        fill-rule: evenodd;
      }
    </style>
  </defs>
  <path id="Forma_1" data-name="Forma 1" class="cls-1" d="M31.75,66.9V33.582C31.75,18.257,45.345,5.79,62.057,5.79S92.364,18.257,92.364,33.582v33H0V165H127V66.579H98.136v-33C98.136,15.064,81.953,0,62.057,0S25.977,15.064,25.977,33.582V66.9m95.25,92.307H5.773V147.632H121.227V159.21ZM5.773,141.842V72.368H121.227v69.474H5.773ZM63.5,89.737a11.574,11.574,0,0,0-11.545,11.579v17.368a11.546,11.546,0,1,0,23.091,0V101.316A11.574,11.574,0,0,0,63.5,89.737Zm5.773,28.947a5.773,5.773,0,1,1-11.545,0V101.316a5.773,5.773,0,1,1,11.545,0v17.368Z"/>
</svg>
