<svg xmlns="http://www.w3.org/2000/svg" width="20" height="20" viewBox="0 0 20 20">
  <metadata><?xpacket begin="﻿" id="W5M0MpCehiHzreSzNTczkc9d"?>
<x:xmpmeta xmlns:x="adobe:ns:meta/" x:xmptk="Adobe XMP Core 5.6-c138 79.159824, 2016/09/14-01:09:01        ">
   <rdf:RDF xmlns:rdf="http://www.w3.org/1999/02/22-rdf-syntax-ns#">
      <rdf:Description rdf:about=""/>
   </rdf:RDF>
</x:xmpmeta>
                                                                                                    
                                                                                                    
                                                                                                    
                                                                                                    
                                                                                                    
                                                                                                    
                                                                                                    
                                                                                                    
                                                                                                    
                                                                                                    
                                                                                                    
                                                                                                    
                                                                                                    
                                                                                                    
                                                                                                    
                                                                                                    
                                                                                                    
                                                                                                    
                                                                                                    
                                                                                                    
                           
<?xpacket end="w"?></metadata>
<defs>
    <style>
      .cls-1 {
        fill: #f86b54;
        fill-rule: evenodd;
      }
    </style>
  </defs>
  <path id="Forma_1" data-name="Forma 1" class="cls-1" d="M10.667,0.023V0H9.333V0.023A10,10,0,0,0,.023,9.333H0v1.333H0.023a10,10,0,0,0,9.311,9.31V20h1.333V19.977a10,10,0,0,0,9.31-9.31H20V9.333H19.977A10,10,0,0,0,10.667.023ZM6.26,2.18A10.606,10.606,0,0,0,4.692,5.333h-2A8.718,8.718,0,0,1,6.26,2.18ZM2,6.667H4.341a15.9,15.9,0,0,0-.328,2.667H1.359A8.573,8.573,0,0,1,2,6.667Zm-0.639,4H4.013a15.892,15.892,0,0,0,.328,2.667H2A8.573,8.573,0,0,1,1.359,10.667Zm1.336,4h2A10.584,10.584,0,0,0,6.26,17.82,8.712,8.712,0,0,1,2.695,14.667Zm6.639,3.914c-1.37-.366-2.551-1.838-3.267-3.914H9.333v3.914Zm0-5.247H5.692a14.929,14.929,0,0,1-.346-2.667H9.333v2.667Zm0-4H5.346a14.929,14.929,0,0,1,.346-2.667H9.333V9.333Zm0-4H6.066c0.716-2.076,1.9-3.548,3.267-3.913V5.333Zm7.971,0H15.31A10.589,10.589,0,0,0,13.74,2.18,8.712,8.712,0,0,1,17.3,5.333ZM10.667,1.42c1.37,0.365,2.551,1.837,3.267,3.913H10.667V1.42Zm0,5.247h3.641a14.974,14.974,0,0,1,.346,2.667H10.667V6.667Zm0,4h3.987a14.855,14.855,0,0,1-.346,2.667H10.667V10.667Zm0,7.914V14.667h3.267C13.218,16.742,12.036,18.215,10.667,18.581Zm3.073-.76a10.628,10.628,0,0,0,1.57-3.153H17.3A8.706,8.706,0,0,1,13.74,17.82ZM18,13.333H15.659a15.894,15.894,0,0,0,.328-2.667h2.654A8.6,8.6,0,0,1,18,13.333Zm-2.016-4a15.9,15.9,0,0,0-.328-2.667H18a8.6,8.6,0,0,1,.638,2.667H15.987Z"/>
</svg>
