<svg xmlns="http://www.w3.org/2000/svg" width="33" height="24" viewBox="0 0 33 24">
  <metadata><?xpacket begin="﻿" id="W5M0MpCehiHzreSzNTczkc9d"?>
<x:xmpmeta xmlns:x="adobe:ns:meta/" x:xmptk="Adobe XMP Core 5.6-c138 79.159824, 2016/09/14-01:09:01        ">
   <rdf:RDF xmlns:rdf="http://www.w3.org/1999/02/22-rdf-syntax-ns#">
      <rdf:Description rdf:about=""/>
   </rdf:RDF>
</x:xmpmeta>
                                                                                                    
                                                                                                    
                                                                                                    
                                                                                                    
                                                                                                    
                                                                                                    
                                                                                                    
                                                                                                    
                                                                                                    
                                                                                                    
                                                                                                    
                                                                                                    
                                                                                                    
                                                                                                    
                                                                                                    
                                                                                                    
                                                                                                    
                                                                                                    
                                                                                                    
                                                                                                    
                           
<?xpacket end="w"?></metadata>
<defs>
    <style>
      .cls-1 {
        fill: #8f8f8f;
        fill-rule: evenodd;
      }
    </style>
  </defs>
  <path class="cls-1" d="M31.893,3.243H29.579V1.094A1.034,1.034,0,0,0,28.636.111a18.926,18.926,0,0,0-5.062.137A11.734,11.734,0,0,0,16.5,3.8,11.735,11.735,0,0,0,9.426.247,18.931,18.931,0,0,0,4.364.111a1.035,1.035,0,0,0-.943.983V3.243H1.107A1.055,1.055,0,0,0,0,4.237V22.968a0.967,0.967,0,0,0,.466.81,1.214,1.214,0,0,0,1.006.129c0.083-.026,8.381-2.568,14.569-0.035a1.222,1.222,0,0,0,.919,0c6.17-2.526,14.486.009,14.569,0.035a1.219,1.219,0,0,0,.364.055,1.2,1.2,0,0,0,.642-0.184A0.967,0.967,0,0,0,33,22.968V4.237A1.056,1.056,0,0,0,31.893,3.243ZM2.215,21.638V5.231H3.42V18.468a0.955,0.955,0,0,0,.384.752,1.2,1.2,0,0,0,.885.231c0.061-.008,4.872-0.6,8.387,1.564A29.929,29.929,0,0,0,2.215,21.638Zm13.178-1.519a12.562,12.562,0,0,0-5.967-2.5,19.311,19.311,0,0,0-3.087-.244c-0.255,0-.49,0-0.7.013V2.006h0c2.128-.086,7.306.118,9.757,3.848V20.119ZM17.607,5.855c2.443-3.714,7.628-3.928,9.757-3.846V17.391a19.521,19.521,0,0,0-3.79.231,12.56,12.56,0,0,0-5.967,2.5V5.855h0ZM19.92,21.016c3.515-2.166,8.328-1.572,8.388-1.564a1.2,1.2,0,0,0,.887-0.23,0.954,0.954,0,0,0,.385-0.753V5.231h1.206V21.638A29.924,29.924,0,0,0,19.92,21.016Z"/>
</svg>
