<svg xmlns="http://www.w3.org/2000/svg" width="127" height="157" viewBox="0 0 127 157">
  <metadata><?xpacket begin="﻿" id="W5M0MpCehiHzreSzNTczkc9d"?>
<x:xmpmeta xmlns:x="adobe:ns:meta/" x:xmptk="Adobe XMP Core 5.6-c138 79.159824, 2016/09/14-01:09:01        ">
   <rdf:RDF xmlns:rdf="http://www.w3.org/1999/02/22-rdf-syntax-ns#">
      <rdf:Description rdf:about=""/>
   </rdf:RDF>
</x:xmpmeta>
                                                                                                    
                                                                                                    
                                                                                                    
                                                                                                    
                                                                                                    
                                                                                                    
                                                                                                    
                                                                                                    
                                                                                                    
                                                                                                    
                                                                                                    
                                                                                                    
                                                                                                    
                                                                                                    
                                                                                                    
                                                                                                    
                                                                                                    
                                                                                                    
                                                                                                    
                                                                                                    
                           
<?xpacket end="w"?></metadata>
<defs>
    <style>
      .cls-1 {
        fill: #f86b54;
        fill-rule: evenodd;
      }
    </style>
  </defs>
  <path class="cls-1" d="M92.378,144.454H9.289a4.187,4.187,0,0,1-2.961-1.213A4.125,4.125,0,0,1,5.1,140.3V8.957a3.738,3.738,0,0,1,3.746-3.72l66.808,0c0.1,5.922-.012,22.654-0.128,33.515a2.517,2.517,0,0,0,.737,1.805,2.555,2.555,0,0,0,1.813.751h33.812v80.66a2.55,2.55,0,0,0,5.1,0V38.777c0-.055-0.028-0.1-0.032-0.154a2.45,2.45,0,0,0-.136-0.672c-0.028-.08-0.048-0.159-0.083-0.234a2.516,2.516,0,0,0-.491-0.726s-9.073-9.036-18.155-18.062C93.549,14.414,89,9.9,85.59,6.522c-2.538-2.512-4.2-4.155-5.359-5.17-0.022-.032-0.045-0.064-0.07-0.1a0.046,0.046,0,0,0-.013-0.017l-0.028.02C78.543-.1,77.914-0.245,77.208.176l-68.362,0A8.821,8.821,0,0,0,0,8.957V140.3a9.143,9.143,0,0,0,2.722,6.522,9.291,9.291,0,0,0,6.567,2.692H92.378A2.53,2.53,0,1,0,92.378,144.454ZM80.8,8.928c6.2,6.128,17.773,17.642,27.5,27.32H80.654C80.8,22.126,80.843,13.846,80.8,8.928Zm9.388,82.786a20.517,20.517,0,0,0-28.444.388,2.514,2.514,0,0,0,0,3.577,2.565,2.565,0,0,0,3.606,0,15.392,15.392,0,0,1,21.332-.294,2.56,2.56,0,0,0,3.6-.1A2.512,2.512,0,0,0,90.189,91.714Zm35.337,54.6L102,123.029c-0.086-.085-0.186-0.146-0.277-0.224a30.006,30.006,0,0,0,4.872-16.393,30.575,30.575,0,1,0-14.1,25.537c0.092,0.108.168,0.226,0.27,0.327l23.527,23.283a5,5,0,0,0,7.041-.021l2.217-2.219A4.939,4.939,0,0,0,125.526,146.312Zm-75.035-39.9a25.5,25.5,0,0,1,51,0,25.053,25.053,0,0,1-5.8,16.033,5.016,5.016,0,0,0-.74.6l-2.218,2.22a5,5,0,0,0-.522.641A25.531,25.531,0,0,1,50.491,106.412ZM119.8,151.886L96.533,128.863q1.084-.975,2.069-2.049l23.254,23.012Z"/>
</svg>
