<svg xmlns="http://www.w3.org/2000/svg" width="140" height="148" viewBox="0 0 140 148">
  <metadata><?xpacket begin="﻿" id="W5M0MpCehiHzreSzNTczkc9d"?>
<x:xmpmeta xmlns:x="adobe:ns:meta/" x:xmptk="Adobe XMP Core 5.6-c138 79.159824, 2016/09/14-01:09:01        ">
   <rdf:RDF xmlns:rdf="http://www.w3.org/1999/02/22-rdf-syntax-ns#">
      <rdf:Description rdf:about=""/>
   </rdf:RDF>
</x:xmpmeta>
                                                                                                    
                                                                                                    
                                                                                                    
                                                                                                    
                                                                                                    
                                                                                                    
                                                                                                    
                                                                                                    
                                                                                                    
                                                                                                    
                                                                                                    
                                                                                                    
                                                                                                    
                                                                                                    
                                                                                                    
                                                                                                    
                                                                                                    
                                                                                                    
                                                                                                    
                                                                                                    
                           
<?xpacket end="w"?></metadata>
<defs>
    <style>
      .cls-1 {
        fill: #f86b54;
        fill-rule: evenodd;
      }
    </style>
  </defs>
  <path id="Forma_1" data-name="Forma 1" class="cls-1" d="M27.018,59.2h61.4a2.467,2.467,0,0,0,0-4.933h-61.4A2.467,2.467,0,0,0,27.018,59.2Zm0-19.733H51.579a2.467,2.467,0,0,0,0-4.933H27.018A2.467,2.467,0,0,0,27.018,39.467Zm0,39.467h61.4a2.467,2.467,0,0,0,0-4.933h-61.4A2.467,2.467,0,0,0,27.018,78.933Zm41.754,14.8H27.018a2.467,2.467,0,0,0,0,4.933H68.772A2.467,2.467,0,0,0,68.772,93.733ZM61.4,113.467H27.018a2.467,2.467,0,0,0,0,4.933H61.4A2.467,2.467,0,0,0,61.4,113.467Zm54.035-28.7V35.979L79.613,0H0V148H108.07A32.064,32.064,0,0,0,115.439,84.762ZM81.053,8.421l26,26.112h-26V8.421ZM91.069,143.067H4.912V4.933H76.14V39.467h34.386V83.975c-0.84-.071-1.655-0.108-2.456-0.108a32.035,32.035,0,0,0-31.93,32.066c0,0.984.062,1.954,0.147,2.918,0.02,0.225.042,0.447,0.066,0.671,0.105,0.943.241,1.875,0.425,2.79,0.022,0.109.052,0.215,0.074,0.323,0.177,0.834.391,1.653,0.631,2.462,0.061,0.2.118,0.407,0.182,0.607q0.416,1.3.933,2.558c0.066,0.158.14,0.311,0.206,0.466q0.475,1.095,1.029,2.143c0.088,0.168.172,0.338,0.263,0.506q0.645,1.173,1.385,2.287c0.113,0.17.231,0.333,0.346,0.5q0.674,0.978,1.415,1.9c0.093,0.116.182,0.237,0.278,0.352,0.567,0.686,1.167,1.343,1.788,1.976,0.152,0.156.307,0.306,0.464,0.459,0.6,0.59,1.218,1.162,1.864,1.7,0.057,0.049.111,0.1,0.169,0.148,0.693,0.572,1.417,1.108,2.159,1.623,0.179,0.126.361,0.247,0.543,0.368S90.88,142.946,91.069,143.067Zm17,0a27.134,27.134,0,0,1,0-54.267c0.766,0,1.523.052,2.275,0.116,0.714,0.069,1.454.163,2.232,0.294l1.088,0.182A27.142,27.142,0,0,1,108.07,143.067Zm12.72-40.875-13.744,19.831-9.7-8a2.462,2.462,0,0,0-3.114,3.813l11.755,9.692a2.463,2.463,0,0,0,1.558.559,2.561,2.561,0,0,0,.336-0.022,2.465,2.465,0,0,0,1.68-1.033l15.262-22.025a2.473,2.473,0,0,0-.613-3.434A2.447,2.447,0,0,0,120.79,102.192Z"/>
</svg>
