<svg xmlns="http://www.w3.org/2000/svg" width="24" height="17" viewBox="0 0 24 17">
  <metadata><?xpacket begin="﻿" id="W5M0MpCehiHzreSzNTczkc9d"?>
<x:xmpmeta xmlns:x="adobe:ns:meta/" x:xmptk="Adobe XMP Core 5.6-c138 79.159824, 2016/09/14-01:09:01        ">
   <rdf:RDF xmlns:rdf="http://www.w3.org/1999/02/22-rdf-syntax-ns#">
      <rdf:Description rdf:about=""/>
   </rdf:RDF>
</x:xmpmeta>
                                                                                                    
                                                                                                    
                                                                                                    
                                                                                                    
                                                                                                    
                                                                                                    
                                                                                                    
                                                                                                    
                                                                                                    
                                                                                                    
                                                                                                    
                                                                                                    
                                                                                                    
                                                                                                    
                                                                                                    
                                                                                                    
                                                                                                    
                                                                                                    
                                                                                                    
                                                                                                    
                           
<?xpacket end="w"?></metadata>
<defs>
    <style>
      .cls-1 {
        fill: #f86b54;
        fill-rule: evenodd;
      }
    </style>
  </defs>
  <path id="Shape_1738_copy" data-name="Shape 1738 copy" class="cls-1" d="M7.69,1.017V0.734A0.749,0.749,0,0,1,8.44-.013H23.25A0.749,0.749,0,0,1,24,.734V14.257a0.749,0.749,0,0,1-.75.747H20.156a2.736,2.736,0,0,1-5.265,0H7.183a2.736,2.736,0,0,1-5.265,0H0.924a0.7,0.7,0,0,1-.087-0.018A0.7,0.7,0,0,1,.75,15,0.749,0.749,0,0,1,0,14.257V8.541C0,4.6,3.387,1.359,7.69,1.017ZM1.529,8.043H4.345c0.719-.2.864-1.478,0.864-3.474V3.179A6.1,6.1,0,0,0,1.529,8.043ZM6.209,2.8V4.569c0,2.165-.13,4.135-1.7,4.46a0.505,0.505,0,0,1-.1.01H1.5V13.51H1.918a2.736,2.736,0,0,1,5.265,0H14.89a2.716,2.716,0,0,1,.561-1.035H8.44a0.5,0.5,0,0,1-.452-0.29,0.733,0.733,0,0,1-.3-0.581V2.514A7.736,7.736,0,0,0,6.209,2.8Zm2.98,8.675H22.5v-10H9.19v10Zm13.311,1H19.594a2.716,2.716,0,0,1,.561,1.035H22.5V12.475ZM17.523,15.5a1.245,1.245,0,1,0-1.25-1.247v0A1.248,1.248,0,0,0,17.523,15.5ZM4.55,15.5A1.245,1.245,0,1,0,3.3,14.257,1.248,1.248,0,0,0,4.55,15.5Z"/>
</svg>
