<svg xmlns="http://www.w3.org/2000/svg" width="22" height="17" viewBox="0 0 22 17">
  <metadata><?xpacket begin="﻿" id="W5M0MpCehiHzreSzNTczkc9d"?>
<x:xmpmeta xmlns:x="adobe:ns:meta/" x:xmptk="Adobe XMP Core 5.6-c138 79.159824, 2016/09/14-01:09:01        ">
   <rdf:RDF xmlns:rdf="http://www.w3.org/1999/02/22-rdf-syntax-ns#">
      <rdf:Description rdf:about=""/>
   </rdf:RDF>
</x:xmpmeta>
                                                                                                    
                                                                                                    
                                                                                                    
                                                                                                    
                                                                                                    
                                                                                                    
                                                                                                    
                                                                                                    
                                                                                                    
                                                                                                    
                                                                                                    
                                                                                                    
                                                                                                    
                                                                                                    
                                                                                                    
                                                                                                    
                                                                                                    
                                                                                                    
                                                                                                    
                                                                                                    
                           
<?xpacket end="w"?></metadata>
<defs>
    <style>
      .cls-1 {
        fill: #f86b54;
        fill-rule: evenodd;
      }
    </style>
  </defs>
  <path class="cls-1" d="M21.262,2.3H19.72V0.775a0.715,0.715,0,0,0-.629-0.7,11.883,11.883,0,0,0-3.375.1A7.675,7.675,0,0,0,11,2.693,7.675,7.675,0,0,0,6.284.175a11.886,11.886,0,0,0-3.375-.1,0.716,0.716,0,0,0-.629.7V2.3H0.738A0.722,0.722,0,0,0,0,3V16.269a0.7,0.7,0,0,0,.311.574,0.768,0.768,0,0,0,.67.091c0.056-.018,5.587-1.819,9.713-0.024a0.77,0.77,0,0,0,.613,0c4.114-1.789,9.657.006,9.713,0.024a0.769,0.769,0,0,0,.67-0.091A0.7,0.7,0,0,0,22,16.269V3A0.722,0.722,0,0,0,21.262,2.3ZM1.476,15.327V3.705h0.8v9.376a0.691,0.691,0,0,0,.256.533,0.764,0.764,0,0,0,.59.164,9.29,9.29,0,0,1,5.591,1.108A18.817,18.817,0,0,0,1.476,15.327Zm8.785-1.076a8.127,8.127,0,0,0-3.978-1.769,12.133,12.133,0,0,0-2.058-.173c-0.17,0-.327,0-0.469.009V1.421h0c1.419-.061,4.87.084,6.5,2.726v10.1Zm1.476-10.1c1.628-2.631,5.085-2.782,6.5-2.724v10.9a12.261,12.261,0,0,0-2.527.164,8.127,8.127,0,0,0-3.978,1.769V4.147h0ZM13.28,14.886a9.287,9.287,0,0,1,5.592-1.108,0.763,0.763,0,0,0,.591-0.163,0.691,0.691,0,0,0,.256-0.534V3.705h0.8V15.327A18.812,18.812,0,0,0,13.28,14.886Z"/>
</svg>
