<?xml version="1.0" encoding="utf-8"?>
<!-- Generator: Adobe Illustrator 16.0.0, SVG Export Plug-In . SVG Version: 6.00 Build 0)  -->
<!DOCTYPE svg PUBLIC "-//W3C//DTD SVG 1.1//EN" "http://www.w3.org/Graphics/SVG/1.1/DTD/svg11.dtd">
<svg version="1.1" id="Layer_1" xmlns="http://www.w3.org/2000/svg" xmlns:xlink="http://www.w3.org/1999/xlink" x="0px" y="0px"
	 width="30.25px" height="24.75px" viewBox="0 0 30.25 24.75" style="enable-background:new 0 0 30.25 24.75;" xml:space="preserve"
	>
<path style="fill:#FFFFFF;" d="M30.25,12.375c0,0.759-0.615,1.375-1.375,1.375h-27.5C0.615,13.75,0,13.134,0,12.375l0,0
	C0,11.616,0.615,11,1.375,11h27.5C29.635,11,30.25,11.616,30.25,12.375L30.25,12.375z"/>
<path style="fill:#FFFFFF;" d="M30.25,23.375c0,0.759-0.615,1.375-1.375,1.375h-27.5C0.615,24.75,0,24.134,0,23.375l0,0
	C0,22.616,0.615,22,1.375,22h27.5C29.635,22,30.25,22.616,30.25,23.375L30.25,23.375z"/>
<path style="fill:#FFFFFF;" d="M30.25,23.375c0,0.759-0.615,1.375-1.375,1.375h-27.5C0.615,24.75,0,24.134,0,23.375l0,0
	C0,22.616,0.615,22,1.375,22h27.5C29.635,22,30.25,22.616,30.25,23.375L30.25,23.375z"/>
<path style="fill:#FFFFFF;" d="M30.25,1.375c0,0.759-0.615,1.375-1.375,1.375h-27.5C0.615,2.75,0,2.134,0,1.375l0,0
	C0,0.616,0.615,0,1.375,0h27.5C29.635,0,30.25,0.616,30.25,1.375L30.25,1.375z"/>
</svg>