<?xml version="1.0" encoding="utf-8"?>
<!-- Generator: Adobe Illustrator 16.0.0, SVG Export Plug-In . SVG Version: 6.00 Build 0)  -->
<!DOCTYPE svg PUBLIC "-//W3C//DTD SVG 1.1//EN" "http://www.w3.org/Graphics/SVG/1.1/DTD/svg11.dtd" [
	<!ENTITY ns_flows "http://ns.adobe.com/Flows/1.0/">
	<!ENTITY ns_extend "http://ns.adobe.com/Extensibility/1.0/">
	<!ENTITY ns_ai "http://ns.adobe.com/AdobeIllustrator/10.0/">
	<!ENTITY ns_graphs "http://ns.adobe.com/Graphs/1.0/">
]>
<svg version="1.1" id="Layer_1" xmlns:x="&ns_extend;" xmlns:i="&ns_ai;" xmlns:graph="&ns_graphs;"
	 xmlns="http://www.w3.org/2000/svg" xmlns:xlink="http://www.w3.org/1999/xlink" xmlns:a="http://ns.adobe.com/AdobeSVGViewerExtensions/3.0/"
	 x="0px" y="0px" width="56px" height="52.164px" viewBox="0 0 56 52.164" style="enable-background:new 0 0 56 52.164;"
	 xml:space="preserve">
<g>
	<path d="M28.899,52.164l-0.61-0.328C-2.352,35.115-0.649,17.794,0.602,12.877C2.535,5.295,8.934,0,16.154,0
		c4.951,0,9.421,2.499,12.745,7.085C32.229,2.499,36.706,0,41.655,0c7.225,0,13.617,5.295,15.557,12.88
		c1.251,4.914,2.954,22.235-27.702,38.959L28.899,52.164z M16.154,2.542c-6.066,0-11.446,4.509-13.091,10.966
		c-1.13,4.431-2.576,20.028,25.836,35.761c28.419-15.73,26.98-31.327,25.847-35.761C53.102,7.051,47.718,2.542,41.655,2.542
		c-4.593,0-8.74,2.664-11.668,7.5C29.987,10.042,20.742,2.542,16.154,2.542L16.154,2.542z"/>
</g>
</svg>
