<?xml version="1.0" encoding="utf-8"?>
<!-- Generator: Adobe Illustrator 16.0.0, SVG Export Plug-In . SVG Version: 6.00 Build 0)  -->
<!DOCTYPE svg PUBLIC "-//W3C//DTD SVG 1.1//EN" "http://www.w3.org/Graphics/SVG/1.1/DTD/svg11.dtd">
<svg version="1.1" id="Layer_1" xmlns="http://www.w3.org/2000/svg" xmlns:xlink="http://www.w3.org/1999/xlink" x="0px" y="0px"
	 width="23px" height="21px" viewBox="0 0 23 21" style="enable-background:new 0 0 23 21;" xml:space="preserve">
<g>
	<path style="fill:#37474F;" d="M11.404,20.522l-0.239-0.131C-0.892,13.815-0.221,7,0.271,5.067C1.032,2.083,3.548,0,6.389,0
		c1.949,0,3.707,0.983,5.015,2.787C12.714,0.983,14.473,0,16.422,0c2.842,0,5.358,2.083,6.119,5.067
		C23.034,7,23.704,13.814,11.644,20.392L11.404,20.522z M6.389,1C4.005,1,1.888,2.774,1.24,5.314
		c-0.444,1.743-1.013,7.881,10.164,14.068C22.585,13.194,22.017,7.058,21.572,5.314C20.925,2.774,18.807,1,16.422,1
		c-1.807,0-3.437,1.048-4.59,2.951C11.832,3.951,8.195,1,6.389,1z"/>
</g>
</svg>
