<?xml version="1.0" encoding="utf-8"?>
<!-- Generator: Adobe Illustrator 16.0.0, SVG Export Plug-In . SVG Version: 6.00 Build 0)  -->
<!DOCTYPE svg PUBLIC "-//W3C//DTD SVG 1.1//EN" "http://www.w3.org/Graphics/SVG/1.1/DTD/svg11.dtd">
<svg version="1.1" id="Layer_1" xmlns="http://www.w3.org/2000/svg" xmlns:xlink="http://www.w3.org/1999/xlink" x="0px" y="0px"
	 width="56px" height="74px" viewBox="0 0 56 74" style="enable-background:new 0 0 56 74;" xml:space="preserve">
<g>
	<path d="M27.502,55.843C27.501,55.843,27.501,55.843,27.502,55.843c-9.817,0-18.941-5.273-23.813-13.761
		c-7.527-13.117-2.952-29.928,10.2-37.476c4.174-2.395,8.909-3.661,13.692-3.661c9.816,0,18.939,5.273,23.81,13.761
		c7.527,13.117,2.952,29.928-10.199,37.476C37.02,54.577,32.285,55.843,27.502,55.843z M27.582,6.945
		c-3.738,0-7.44,0.991-10.706,2.865C6.594,15.711,3.013,28.849,8.894,39.096c3.804,6.629,10.934,10.747,18.607,10.747
		c0,0,0.001,0,0.001,0c3.737,0,7.438-0.99,10.704-2.864c10.282-5.901,13.862-19.04,7.982-29.287
		C42.384,11.063,35.254,6.945,27.582,6.945z"/>
</g>
<g>
	<path d="M51.962,73.435c-1.034,0-2.04-0.535-2.597-1.494L37.216,51.023c-0.833-1.433-0.346-3.269,1.087-4.101
		c1.434-0.831,3.269-0.346,4.101,1.087l12.149,20.917c0.833,1.433,0.346,3.269-1.087,4.101
		C52.991,73.303,52.474,73.435,51.962,73.435z"/>
</g>
</svg>
