<?xml version="1.0" encoding="utf-8"?>
<!-- Generator: Adobe Illustrator 16.0.0, SVG Export Plug-In . SVG Version: 6.00 Build 0)  -->
<!DOCTYPE svg PUBLIC "-//W3C//DTD SVG 1.1//EN" "http://www.w3.org/Graphics/SVG/1.1/DTD/svg11.dtd">
<svg version="1.1" id="Layer_1" xmlns="http://www.w3.org/2000/svg" xmlns:xlink="http://www.w3.org/1999/xlink" x="0px" y="0px"
	 width="46.5px" height="51.625px" viewBox="0 0 46.5 51.625" enable-background="new 0 0 46.5 51.625" xml:space="preserve">
<path fill="#FFFFFF" d="M31.722,28.853c0.965-0.606,1.868-1.313,2.672-2.12c1.736-1.745,3.036-3.913,3.744-6.271
	c0.42-1.396,0.631-2.853,0.631-4.31c0-8.275-6.732-15.008-15.008-15.008S8.753,7.875,8.753,16.151c0,4.718,2.498,9.899,6.599,12.483
	C6.878,31.839,0.836,40.032,0.836,49.613v1.5h44.849v-1.5C45.685,40.242,39.903,32.199,31.722,28.853z M11.753,16.151
	c0-6.621,5.387-12.008,12.008-12.008S35.769,9.53,35.769,16.151c0,5.344-3.512,9.88-8.347,11.432
	c-1.35-0.255-2.739-0.394-4.162-0.394c-1.187,0-2.352,0.095-3.489,0.272C15.108,25.813,11.753,21.372,11.753,16.151z M3.893,48.113
	c0.769-10.012,9.161-17.924,19.367-17.924c10.206,0,18.6,7.912,19.367,17.924H3.893z"/>
</svg>
