<svg xmlns="http://www.w3.org/2000/svg" width="20" height="20" viewBox="0 0 20 20">
  <metadata><?xpacket begin="﻿" id="W5M0MpCehiHzreSzNTczkc9d"?>
<x:xmpmeta xmlns:x="adobe:ns:meta/" x:xmptk="Adobe XMP Core 5.6-c138 79.159824, 2016/09/14-01:09:01        ">
   <rdf:RDF xmlns:rdf="http://www.w3.org/1999/02/22-rdf-syntax-ns#">
      <rdf:Description rdf:about=""/>
   </rdf:RDF>
</x:xmpmeta>





















<?xpacket end="w"?></metadata>
<defs>
    <style>
      .cls-1 {
        fill: #fff;
        fill-rule: evenodd;
      }
    </style>
  </defs>
  <path id="Forma_1" data-name="Forma 1" class="cls-1" d="M17.746,0H2.253A2.256,2.256,0,0,0,0,2.254V17.747A2.256,2.256,0,0,0,2.253,20H17.746A2.256,2.256,0,0,0,20,17.747V2.254A2.256,2.256,0,0,0,17.746,0Zm0.845,17.747a0.846,0.846,0,0,1-.845.845H2.253a0.846,0.846,0,0,1-.845-0.845V2.254a0.846,0.846,0,0,1,.845-0.845H17.746a0.846,0.846,0,0,1,.845.845V17.747ZM14.822,3.611a0.7,0.7,0,0,0-1,0L8.2,9.242,6.173,7.216a0.7,0.7,0,0,0-1,0L2.352,10.043a0.7,0.7,0,0,0,0,1L7.7,16.389a0.7,0.7,0,0,0,1,0l8.951-8.955a0.7,0.7,0,0,0,0-1ZM8.2,14.895L3.846,10.54,5.675,8.71,7.7,10.736a0.7,0.7,0,0,0,1,0l5.628-5.63,1.83,1.83Z"/>
</svg>
