<svg xmlns="http://www.w3.org/2000/svg" width="24" height="22" viewBox="0 0 24 22">
  <metadata><?xpacket begin="﻿" id="W5M0MpCehiHzreSzNTczkc9d"?>
<x:xmpmeta xmlns:x="adobe:ns:meta/" x:xmptk="Adobe XMP Core 5.6-c138 79.159824, 2016/09/14-01:09:01        ">
   <rdf:RDF xmlns:rdf="http://www.w3.org/1999/02/22-rdf-syntax-ns#">
      <rdf:Description rdf:about=""/>
   </rdf:RDF>
</x:xmpmeta>





















<?xpacket end="w"?></metadata>
<defs>
    <style>
      .cls-1 {
        fill: none;
        stroke: #fff;
        stroke-width: 1.7px;
        fill-rule: evenodd;
      }
    </style>
  </defs>
  <path id="Forma_1" data-name="Forma 1" class="cls-1" d="M22.967,6.961C22.646,3.5,20.143,1,17.011,1a5.948,5.948,0,0,0-5.072,2.857A5.729,5.729,0,0,0,6.988,1C3.856,1,1.353,3.5,1.032,6.961a6.017,6.017,0,0,0,.187,2.267A9.688,9.688,0,0,0,4.266,14.2L11.933,21l7.8-6.8a9.682,9.682,0,0,0,3.047-4.972A6.037,6.037,0,0,0,22.967,6.961Z"/>
</svg>
